<svg width="24" height="24" viewBox="0 0 24 24" fill="none" xmlns="http://www.w3.org/2000/svg">
<path d="M21 17.2H19.8V10C19.8 5.7 16.3 2.2 12 2.2C7.7 2.2 4.2 5.7 4.2 10V17.2H3C2.6 17.2 2.2 17.5 2.2 18C2.2 18.5 2.5 18.8 3 18.8H5H19H21C21.4 18.8 21.8 18.5 21.8 18C21.8 17.5 21.4 17.2 21 17.2ZM5.8 17.2V10C5.8 6.6 8.6 3.8 12 3.8C15.4 3.8 18.2 6.6 18.2 10V17.2H5.8Z" fill="#484848"/>
<path d="M15.3 20H8.7C8.5 20 8.4 20.2 8.5 20.3C9.3 21.3 10.6 22 12 22C13.4 22 14.7 21.3 15.5 20.3C15.6 20.2 15.5 20 15.3 20Z" fill="#484848"/>
</svg>
