<svg width="16" height="16" viewBox="0 0 16 16" fill="none" xmlns="http://www.w3.org/2000/svg">
<path d="M9.66658 2.6665H6.33325L4.66659 4.6665H2.66659C2.31296 4.6665 1.97382 4.80698 1.72378 5.05703C1.47373 5.30708 1.33325 5.64622 1.33325 5.99984V11.9998C1.33325 12.3535 1.47373 12.6926 1.72378 12.9426C1.97382 13.1927 2.31296 13.3332 2.66659 13.3332H13.3333C13.6869 13.3332 14.026 13.1927 14.2761 12.9426C14.5261 12.6926 14.6666 12.3535 14.6666 11.9998V5.99984C14.6666 5.64622 14.5261 5.30708 14.2761 5.05703C14.026 4.80698 13.6869 4.6665 13.3333 4.6665H11.3333L9.66658 2.6665Z" stroke="#484848" stroke-width="1.25" stroke-linecap="round" stroke-linejoin="round"/>
<path d="M8 10.6665C9.10457 10.6665 10 9.77107 10 8.6665C10 7.56193 9.10457 6.6665 8 6.6665C6.89543 6.6665 6 7.56193 6 8.6665C6 9.77107 6.89543 10.6665 8 10.6665Z" stroke="#484848" stroke-width="1.25" stroke-linecap="round" stroke-linejoin="round"/>
</svg>
