<svg width="24" height="24" viewBox="0 0 24 24" fill="none" xmlns="http://www.w3.org/2000/svg">
<path d="M21.0002 20.2002H7.2002C4.5002 20.2002 2.2002 18.0002 2.2002 15.2002V8.7002C2.2002 6.0002 4.4002 3.7002 7.2002 3.7002H16.8002C19.5002 3.7002 21.8002 5.9002 21.8002 8.7002V19.5002C21.8002 19.9002 21.4002 20.2002 21.0002 20.2002ZM7.2002 5.2002C5.3002 5.2002 3.7002 6.8002 3.7002 8.7002V15.3002C3.7002 17.2002 5.3002 18.8002 7.2002 18.8002H20.2002V8.8002C20.2002 6.9002 18.6002 5.3002 16.7002 5.3002H7.2002V5.2002Z" fill="#484848"/>
<path d="M8 13C8.55228 13 9 12.5523 9 12C9 11.4477 8.55228 11 8 11C7.44772 11 7 11.4477 7 12C7 12.5523 7.44772 13 8 13Z" fill="#484848"/>
<path d="M12 13C12.5523 13 13 12.5523 13 12C13 11.4477 12.5523 11 12 11C11.4477 11 11 11.4477 11 12C11 12.5523 11.4477 13 12 13Z" fill="#484848"/>
<path d="M16 13C16.5523 13 17 12.5523 17 12C17 11.4477 16.5523 11 16 11C15.4477 11 15 11.4477 15 12C15 12.5523 15.4477 13 16 13Z" fill="#484848"/>
</svg>
