<svg width="20" height="20" viewBox="0 0 20 20" fill="none" xmlns="http://www.w3.org/2000/svg">
<path d="M10 0.199997C4.60001 0.199997 0.200012 4.6 0.200012 10C0.200012 15.4 4.60001 19.8 10 19.8C15.4 19.8 19.8 15.4 19.8 10C19.8 4.6 15.4 0.199997 10 0.199997ZM10 18.2C5.50001 18.2 1.80001 14.5 1.80001 10C1.80001 5.5 5.50001 1.8 10 1.8C14.5 1.8 18.2 5.5 18.2 10C18.2 14.5 14.5 18.2 10 18.2Z" fill="#484848"/>
<path d="M14 10.2H10.8V7C10.8 6.6 10.5 6.2 10 6.2C9.50001 6.2 9.20001 6.6 9.20001 7V11C9.20001 11.4 9.50001 11.8 10 11.8H14C14.4 11.8 14.8 11.5 14.8 11C14.8 10.5 14.4 10.2 14 10.2Z" fill="#484848"/>
</svg>
