<svg width="16" height="4" viewBox="0 0 16 4" fill="none" xmlns="http://www.w3.org/2000/svg">
<path d="M2.16667 0.333496C1.25 0.333496 0.5 1.0835 0.5 2.00016C0.5 2.91683 1.25 3.66683 2.16667 3.66683C3.08333 3.66683 3.83333 2.91683 3.83333 2.00016C3.83333 1.0835 3.08333 0.333496 2.16667 0.333496ZM13.8333 0.333496C12.9167 0.333496 12.1667 1.0835 12.1667 2.00016C12.1667 2.91683 12.9167 3.66683 13.8333 3.66683C14.75 3.66683 15.5 2.91683 15.5 2.00016C15.5 1.0835 14.75 0.333496 13.8333 0.333496ZM8 0.333496C7.08333 0.333496 6.33333 1.0835 6.33333 2.00016C6.33333 2.91683 7.08333 3.66683 8 3.66683C8.91667 3.66683 9.66667 2.91683 9.66667 2.00016C9.66667 1.0835 8.91667 0.333496 8 0.333496Z" fill="#484848"/>
</svg>
