<svg width="22" height="22" viewBox="0 0 22 22" fill="none" xmlns="http://www.w3.org/2000/svg">
<path d="M21 10.2H20C19.6 5.8 16.2 2.3 11.8 2V0.999997C11.8 0.599997 11.5 0.199997 11 0.199997C10.5 0.199997 10.2 0.599997 10.2 0.999997V2C5.90001 2.4 2.40001 5.9 2.00001 10.2H1.00001C0.600012 10.2 0.200012 10.5 0.200012 11C0.200012 11.5 0.500012 11.8 1.00001 11.8H2.00001C2.40001 16.2 5.80001 19.7 10.2 20V21C10.2 21.4 10.5 21.8 11 21.8C11.5 21.8 11.8 21.5 11.8 21V20C16.2 19.6 19.7 16.2 20 11.8H21C21.4 11.8 21.8 11.5 21.8 11C21.8 10.5 21.4 10.2 21 10.2ZM11.8 18.5V18C11.8 17.6 11.5 17.2 11 17.2C10.5 17.2 10.2 17.5 10.2 18V18.5C6.70001 18.1 3.80001 15.3 3.50001 11.8H4.00001C4.40001 11.8 4.80001 11.5 4.80001 11C4.80001 10.5 4.40001 10.2 4.00001 10.2H3.50001C3.90001 6.7 6.70001 3.8 10.2 3.5V4C10.2 4.4 10.5 4.8 11 4.8C11.5 4.8 11.8 4.5 11.8 4V3.5C15.3 3.9 18.2 6.7 18.5 10.2H18C17.6 10.2 17.2 10.5 17.2 11C17.2 11.5 17.5 11.8 18 11.8H18.5C18.1 15.3 15.3 18.1 11.8 18.5Z" fill="#484848"/>
</svg>
