<svg width="24" height="24" viewBox="0 0 24 24" fill="none" xmlns="http://www.w3.org/2000/svg">
<path d="M12 21.7C11.8 21.7 11.6 21.6 11.5 21.5L3.00001 13C0.800014 10.8 0.800014 7.10001 3.00001 4.90001C5.20001 2.70001 8.90001 2.70001 11.1 4.90001L12 5.70001L12.8 4.90001C13.9 3.80001 15.3 3.20001 16.9 3.20001C18.5 3.20001 19.9 3.80001 21 4.90001C22.1 6.00001 22.7 7.40001 22.7 9.00001C22.7 10.6 22.1 12 21 13.1L16.7 17.4L12.6 21.5C12.4 21.6 12.2 21.7 12 21.7ZM7.10001 4.70001C6.00001 4.70001 4.90001 5.10001 4.10001 5.90001C3.30001 6.70001 2.90001 7.80001 2.90001 8.90001C2.90001 10 3.30001 11.1 4.10001 11.9L12 19.8L19.9 11.9C20.7 11.1 21.1 10 21.1 8.90001C21.1 7.80001 20.7 6.70001 19.9 5.90001C19.1 5.10001 18 4.70001 16.9 4.70001C15.8 4.70001 14.7 5.10001 13.9 5.90001L12.5 7.30001C12.4 7.40001 12.2 7.50001 12 7.50001C11.8 7.50001 11.6 7.40001 11.5 7.30001L10.1 5.90001C9.30001 5.10001 8.20001 4.70001 7.10001 4.70001Z" fill="#484848"/>
</svg>
