<svg width="24" height="24" viewBox="0 0 24 24" fill="none" xmlns="http://www.w3.org/2000/svg">
<path d="M22 9.9L12.5 1.9C12.2 1.7 11.8 1.7 11.5 1.9L2.00001 9.9C1.80001 10 1.70001 10.3 1.70001 10.5V21.5C1.70001 21.9 2.00001 22.3 2.50001 22.3H3.00001H9.50001H14.5H21H21.5C21.9 22.3 22.3 22 22.3 21.5V10.5C22.2 10.3 22.2 10.1 22 9.9ZM10.2 18.6C10.2 18.5 10.2 17.3 10.2 16.3H13.7V20.8H10.2V18.6ZM15.2 20.8V15.6C15.2 15.2 14.9 14.8 14.4 14.8H9.40001C9.00001 14.8 8.70001 15.1 8.60001 15.5C8.60001 16 8.60001 18.4 8.60001 18.6V20.8H3.20001V10.9L12 3.5L20.8 10.9V20.8H15.2Z" fill="#484848"/>
</svg>
