<svg width="24" height="24" viewBox="0 0 24 24" fill="none" xmlns="http://www.w3.org/2000/svg">
<path d="M15.4 13.2C17.1 12.1 18.2 10.2 18.2 8C18.2 4.6 15.4 1.8 12 1.8C8.59999 1.8 5.79999 4.6 5.79999 8C5.79999 10.2 6.89999 12.1 8.59999 13.2C4.69999 14.5 1.79999 18.1 1.79999 22.5C1.79999 22.9 2.09999 23.3 2.59999 23.3H21.6C22 23.3 22.4 23 22.4 22.5C22.2 18.2 19.4 14.5 15.4 13.2ZM7.19999 8C7.19999 5.4 9.29999 3.2 12 3.2C14.7 3.2 16.8 5.3 16.8 8C16.8 10.7 14.7 12.8 12 12.8C9.29999 12.8 7.19999 10.6 7.19999 8ZM3.29999 21.8C3.69999 17.6 7.19999 14.3 11.5 14.3H12.5C16.8 14.3 20.3 17.6 20.7 21.8H3.29999Z" fill="#484848"/>
</svg>
