<svg width="24" height="24" viewBox="0 0 24 24" fill="none" xmlns="http://www.w3.org/2000/svg">
<path d="M12 22.3C11.8 22.3 11.6 22.2 11.5 22.1L5.90002 16.4C3.40002 13.8 2.70002 10.3 4.10002 7C5.50002 3.7 8.50002 1.7 12 1.7C15.5 1.7 18.6 3.7 19.9 7C21.3 10.3 20.6 13.8 18.1 16.4L12.5 22.1C12.4 22.2 12.2 22.3 12 22.3ZM12 3.2C9.10002 3.2 6.60002 4.9 5.40002 7.6C4.20002 10.3 4.80002 13.2 6.90002 15.3L12 20.5L17.1 15.3C19.1 13.2 19.7 10.3 18.6 7.6C17.5 4.9 14.9 3.2 12 3.2Z" fill="#484848"/>
<path d="M12 13.9C9.90001 13.9 8.20001 12.2 8.20001 10.1C8.20001 7.99999 9.90001 6.39999 12 6.39999C14.1 6.39999 15.8 8.09999 15.8 10.2C15.8 12.3 14.1 13.9 12 13.9ZM12 7.89999C10.8 7.89999 9.80001 8.89999 9.80001 10.1C9.80001 11.3 10.8 12.3 12 12.3C13.2 12.3 14.2 11.3 14.2 10.1C14.2 8.89999 13.2 7.89999 12 7.89999Z" fill="#484848"/>
</svg>
