<svg width="16" height="18" viewBox="0 0 16 18" fill="none" xmlns="http://www.w3.org/2000/svg">
<path d="M14.5833 4.83332C13.5 2.08332 10.9167 0.416656 8 0.416656C5.08334 0.416656 2.58334 2.08332 1.41667 4.83332C0.250004 7.58332 0.833337 10.5 2.91667 12.6667L7.58334 17.4167C7.58334 17.5 7.83334 17.5833 8 17.5833C8.16667 17.5833 8.33334 17.5833 8.41667 17.4167L13.0833 12.6667C15.1667 10.5 15.75 7.58332 14.5833 4.83332ZM8 9.83332C6.58334 9.83332 5.5 8.74999 5.5 7.33332C5.5 5.91666 6.58334 4.83332 8 4.83332C9.41667 4.83332 10.5 5.91666 10.5 7.33332C10.5 8.74999 9.41667 9.83332 8 9.83332Z" fill="white"/>
</svg>
