<svg width="24" height="24" viewBox="0 0 24 24" fill="none" xmlns="http://www.w3.org/2000/svg">
<path d="M14 16.8C13.6 16.8 13.2 16.5 13.2 16V11C13.2 10.6 13.5 10.2 14 10.2C14.5 10.2 14.8 10.5 14.8 11V16C14.8 16.4 14.5 16.8 14 16.8Z" fill="#484848"/>
<path d="M10 16.8C9.6 16.8 9.2 16.5 9.2 16V11C9.2 10.6 9.5 10.2 10 10.2C10.5 10.2 10.8 10.5 10.8 11V16C10.8 16.4 10.5 16.8 10 16.8Z" fill="#484848"/>
<path d="M21 6.20001H3C2.6 6.20001 2.2 6.50001 2.2 7.00001C2.2 7.50001 2.5 7.80001 3 7.80001H4.3L5.7 20.1C5.7 20.5 6.1 20.8 6.4 20.8H17.4C17.8 20.8 18.1 20.5 18.1 20.1L19.5 7.80001H20.8C21.2 7.80001 21.6 7.50001 21.6 7.00001C21.6 6.50001 21.3 6.20001 20.8 6.20001H21ZM16.8 19.2H7.2L5.9 7.70001H18.2L16.9 19.2H16.8Z" fill="#484848"/>
<path d="M18 4.80001H6C5.6 4.80001 5.2 4.50001 5.2 4.00001C5.2 3.50001 5.5 3.20001 6 3.20001H18C18.4 3.20001 18.8 3.50001 18.8 4.00001C18.8 4.50001 18.5 4.80001 18 4.80001Z" fill="#484848"/>
</svg>
