<svg width="16" height="16" viewBox="0 0 16 16" fill="none" xmlns="http://www.w3.org/2000/svg">
<path d="M9.10005 8L15.6 1.5C15.9 1.2 15.9 0.700003 15.6 0.400003C15.3 0.100003 14.8 0.100003 14.5 0.400003L8.00005 6.9L1.50005 0.500003C1.20005 0.200003 0.700049 0.200003 0.400049 0.500003C0.100049 0.800003 0.100049 1.3 0.400049 1.6L6.90005 8.1L0.400049 14.6C0.100049 14.9 0.100049 15.4 0.400049 15.7C0.500049 15.8 0.700049 15.9 0.900049 15.9C1.10005 15.9 1.30005 15.8 1.40005 15.7L7.90005 9.2L14.4 15.7C14.5 15.8 14.7 15.9 14.9 15.9C15.1 15.9 15.3 15.8 15.4 15.7C15.7 15.4 15.7 14.9 15.4 14.6L9.10005 8Z" fill="#353535"/>
</svg>
