<svg width="22" height="22" viewBox="0 0 22 22" fill="none" xmlns="http://www.w3.org/2000/svg">
<path d="M21 20.1L17.9 16.8C19.4 15.1 20.2 12.9 20.2 10.5C20.2 5.1 15.8 0.800003 10.5 0.800003C5.19999 0.800003 0.799988 5.2 0.799988 10.5C0.799988 15.8 5.19999 20.2 10.5 20.2C12.9 20.2 15.1 19.3 16.8 17.9L19.9 21.1C20 21.3 20.2 21.3 20.4 21.3C20.6 21.3 20.8 21.2 20.9 21.1C21.3 20.9 21.3 20.4 21 20.1ZM2.29999 10.5C2.29999 6 5.99999 2.3 10.5 2.3C15 2.3 18.7 6 18.7 10.5C18.7 15 15 18.7 10.5 18.7C5.99999 18.7 2.29999 15.1 2.29999 10.5Z" fill="#484848"/>
</svg>
