<svg width="24" height="24" viewBox="0 0 24 24" fill="none" xmlns="http://www.w3.org/2000/svg">
<path d="M15 22.8H9.00001C8.60001 22.8 8.20001 22.5 8.20001 22V19.9C7.80001 19.7 7.40001 19.5 7.00001 19.2L5.20001 20.2C4.80001 20.4 4.40001 20.3 4.20001 19.9L1.20001 14.7C1.00001 14.3 1.10001 13.9 1.50001 13.7L3.30001 12.6C3.30001 12.4 3.30001 12.1 3.30001 11.9C3.30001 11.7 3.30001 11.4 3.30001 11.2L1.50001 10.1C1.10001 10 1.00001 9.60001 1.20001 9.20001L4.20001 4.00001C4.30001 3.80001 4.50001 3.70001 4.70001 3.70001C4.90001 3.60001 5.10001 3.70001 5.30001 3.80001L7.00001 4.80001C7.40001 4.50001 7.80001 4.30001 8.20001 4.10001V2.00001C8.20001 1.60001 8.50001 1.20001 9.00001 1.20001H15C15.4 1.20001 15.8 1.50001 15.8 2.00001V4.10001C16.2 4.30001 16.6 4.50001 17 4.80001L18.8 3.70001C19 3.60001 19.2 3.60001 19.4 3.60001C19.6 3.70001 19.8 3.80001 19.9 3.90001L22.9 9.10001C23.1 9.50001 23 9.90001 22.6 10.1L20.8 11.2C20.8 11.4 20.8 11.7 20.8 11.9C20.8 12.1 20.8 12.4 20.8 12.6L22.6 13.7C23 13.9 23.1 14.4 22.9 14.7L19.9 19.9C19.7 20.3 19.2 20.4 18.9 20.2L17.1 19.2C16.7 19.5 16.3 19.7 15.9 19.9V22C15.8 22.4 15.4 22.8 15 22.8ZM9.80001 21.2H14.3V19.4C14.3 19.1 14.5 18.8 14.8 18.7C15.4 18.5 16 18.1 16.5 17.7C16.7 17.5 17.1 17.5 17.3 17.6L18.9 18.5L21.1 14.6L19.5 13.7C19.2 13.5 19.1 13.3 19.1 12.9C19.2 12.5 19.2 12.2 19.2 11.9C19.2 11.6 19.2 11.3 19.1 10.9C19.1 10.6 19.2 10.3 19.5 10.1L21.1 9.20001L18.9 5.30001L17.3 6.20001C17 6.40001 16.7 6.30001 16.5 6.10001C16 5.70001 15.4 5.30001 14.8 5.10001C14.5 5.00001 14.3 4.70001 14.3 4.40001V2.80001H9.80001V4.60001C9.80001 4.90001 9.60001 5.20001 9.30001 5.30001C8.70001 5.50001 8.10001 5.90001 7.60001 6.30001C7.30001 6.50001 7.00001 6.50001 6.70001 6.30001L5.10001 5.40001L2.90001 9.30001L4.50001 10.2C4.80001 10.4 4.90001 10.6 4.90001 11C4.80001 11.4 4.80001 11.7 4.80001 12C4.80001 12.3 4.80001 12.6 4.90001 13C4.90001 13.3 4.80001 13.6 4.50001 13.8L2.90001 14.7L5.10001 18.6L6.70001 17.7C7.00001 17.5 7.30001 17.6 7.50001 17.8C8.00001 18.2 8.60001 18.6 9.20001 18.8C9.50001 18.9 9.70001 19.2 9.70001 19.5V21.2H9.80001Z" fill="#484848"/>
<path d="M12 16.8C9.40001 16.8 7.20001 14.7 7.20001 12C7.20001 9.30001 9.40001 7.20001 12 7.20001C14.6 7.20001 16.8 9.30001 16.8 12C16.8 14.7 14.6 16.8 12 16.8ZM12 8.80001C10.2 8.80001 8.80001 10.3 8.80001 12C8.80001 13.7 10.3 15.2 12 15.2C13.7 15.2 15.2 13.7 15.2 12C15.2 10.3 13.8 8.80001 12 8.80001Z" fill="#484848"/>
</svg>
