<svg width="28" height="28" viewBox="0 0 28 28" fill="none" xmlns="http://www.w3.org/2000/svg">
<path d="M9.56673 21.9333H4.66673C4.20007 21.9333 3.7334 21.5833 3.7334 21V16.1C3.7334 15.8666 3.85007 15.6333 3.96673 15.5166L16.4501 3.03331C16.8001 2.68331 17.3834 2.68331 17.7334 3.03331L22.6334 7.93331C22.7501 8.04998 22.8667 8.28331 22.8667 8.51665C22.8667 8.74998 22.7501 8.98331 22.6334 9.09998L10.2667 21.5833C10.0334 21.8166 9.80007 21.9333 9.56673 21.9333ZM5.60007 20.0666H9.3334L20.8834 8.51665L17.1501 4.78331L5.60007 16.3333V20.0666Z" fill="white"/>
<path d="M23.3334 25.4333H4.66673C4.20007 25.4333 3.7334 25.0833 3.7334 24.5C3.7334 23.9166 4.0834 23.5667 4.66673 23.5667H23.3334C23.8001 23.5667 24.2667 23.9166 24.2667 24.5C24.2667 25.0833 23.8001 25.4333 23.3334 25.4333Z" fill="white"/>
</svg>
